<svg xmlns="http://www.w3.org/2000/svg" xmlns:xlink="http://www.w3.org/1999/xlink" width="256" zoomAndPan="magnify" viewBox="0 0 192 191.999996" height="256" preserveAspectRatio="xMidYMid meet" version="1.0"><defs><g/><clipPath id="bd6906648e"><path d="M 19.199219 16.386719 L 172.800781 16.386719 L 172.800781 27.394531 L 19.199219 27.394531 Z M 19.199219 16.386719 " clip-rule="nonzero"/></clipPath><clipPath id="d3fd46ae3e"><path d="M 19.199219 164.484375 L 172.800781 164.484375 L 172.800781 175.492188 L 19.199219 175.492188 Z M 19.199219 164.484375 " clip-rule="nonzero"/></clipPath></defs><rect x="-19.2" width="230.4" fill="#ffffff" y="-19.2" height="230.399995" fill-opacity="1"/><rect x="-19.2" width="230.4" fill="#ffffff" y="-19.2" height="230.399995" fill-opacity="1"/><g fill="#000000" fill-opacity="1"><g transform="translate(28.040254, 142.956007)"><g><path d="M 12.21875 0 L 12.21875 -101.859375 L 31.875 -101.859375 L 68.09375 -49.03125 L 104.1875 -101.859375 L 123.6875 -101.859375 L 123.6875 0 L 100.703125 0 L 100.703125 -61.265625 L 75.953125 -25.171875 L 59.953125 -25.171875 L 35.21875 -61.40625 L 35.21875 0 Z M 12.21875 0 "/></g></g></g><g clip-path="url(#bd6906648e)"><path fill="#000000" d="M 19.199219 16.386719 L 172.808594 16.386719 L 172.808594 27.394531 L 19.199219 27.394531 Z M 19.199219 16.386719 " fill-opacity="1" fill-rule="nonzero"/></g><g clip-path="url(#d3fd46ae3e)"><path fill="#000000" d="M 19.199219 164.484375 L 172.808594 164.484375 L 172.808594 175.492188 L 19.199219 175.492188 Z M 19.199219 164.484375 " fill-opacity="1" fill-rule="nonzero"/></g></svg>